<?xml version="1.0" standalone="no"?>
<!DOCTYPE svg PUBLIC "-//W3C//DTD SVG 20010904//EN"
 "http://www.w3.org/TR/2001/REC-SVG-20010904/DTD/svg10.dtd">
<svg version="1.0" xmlns="http://www.w3.org/2000/svg"
 width="800.000000pt" height="665.000000pt" viewBox="0 0 800.000000 665.000000"
 preserveAspectRatio="xMidYMid meet">

<g transform="translate(0.000000,665.000000) scale(0.100000,-0.100000)"
fill="#000000" stroke="none">
<path d="M2126 6498 c-19 -30 -60 -169 -83 -278 -12 -59 -17 -132 -17 -240 0
-157 8 -220 45 -339 l20 -64 -29 -31 c-100 -104 -218 -313 -270 -476 -47 -150
-62 -260 -62 -469 0 -264 29 -488 88 -678 l20 -63 -313 0 c-336 1 -539 -10
-815 -41 -179 -20 -447 -62 -457 -72 -20 -21 26 -19 167 4 386 65 1001 104
1312 84 l118 -7 20 -46 c43 -96 53 -88 -127 -95 -401 -17 -897 -85 -1263 -173
-214 -51 -220 -53 -214 -67 4 -10 29 -7 112 15 366 96 869 170 1357 198 205
12 179 21 247 -87 207 -329 590 -545 1143 -647 72 -13 158 -27 192 -31 l62 -7
-59 -55 c-75 -69 -135 -164 -176 -278 -30 -85 -34 -91 -75 -112 -137 -69 -373
-90 -514 -46 -142 45 -252 138 -367 310 -37 55 -99 130 -137 166 -126 119
-305 185 -427 158 -126 -28 -102 -98 63 -185 132 -69 218 -160 313 -328 131
-230 231 -338 385 -414 50 -24 117 -51 150 -60 88 -24 334 -30 454 -10 52 8
98 13 103 10 10 -6 9 -393 -1 -629 -7 -162 -8 -172 -36 -223 -35 -65 -67 -93
-156 -138 -68 -34 -89 -56 -89 -92 0 -39 31 -52 126 -52 237 1 422 98 485 255
23 60 24 64 29 545 6 456 7 489 27 547 21 63 57 123 74 123 6 0 9 -266 7 -728
l-3 -727 -23 -43 c-12 -23 -42 -56 -65 -73 -48 -35 -66 -62 -67 -101 -1 -91
149 -91 323 0 83 43 158 123 190 202 l22 55 3 739 c2 518 6 744 13 753 14 17
65 17 76 0 4 -6 10 -349 13 -762 l5 -750 25 -50 c53 -110 181 -203 330 -241
107 -28 180 -1 180 67 0 25 -10 41 -51 78 -58 52 -82 93 -98 169 -14 68 -16
1402 -1 1402 14 0 56 -77 76 -140 16 -48 19 -113 24 -530 5 -464 6 -476 28
-532 64 -158 247 -257 477 -258 89 0 125 15 125 53 0 36 -26 64 -92 99 -71 38
-127 103 -156 180 -23 64 -32 270 -32 808 -1 408 -5 440 -77 589 -37 77 -59
108 -123 173 -73 72 -77 78 -52 78 15 0 86 9 158 20 570 85 943 274 1146 581
31 46 66 105 79 132 14 28 30 47 40 47 69 0 410 -24 573 -40 346 -35 723 -100
978 -169 85 -23 108 -26 112 -15 5 14 4 14 -150 53 -224 57 -539 113 -809 145
-174 21 -501 46 -600 46 -44 0 -86 4 -92 8 -10 6 -8 22 8 69 l20 61 147 7
c156 8 505 1 737 -16 229 -16 479 -47 739 -92 5 -1 10 3 13 10 5 13 -44 24
-232 53 -350 52 -619 70 -1059 70 -299 1 -337 2 -332 16 11 30 45 220 58 324
7 59 13 219 13 365 0 212 -3 276 -18 349 -53 260 -158 473 -333 671 l-52 60
14 55 c52 201 41 445 -32 690 -37 124 -42 130 -113 130 -201 0 -528 -127 -804
-313 l-58 -39 -127 26 c-257 51 -357 60 -672 61 -232 0 -324 -4 -430 -18 -134
-19 -323 -54 -411 -78 -45 -12 -46 -12 -105 28 -300 203 -627 333 -835 333
-50 0 -61 -3 -73 -22z m1390 -1694 c290 -21 615 -21 909 1 305 22 553 17 668
-14 118 -31 210 -84 297 -171 122 -121 203 -255 235 -393 17 -72 19 -238 5
-354 -49 -388 -236 -618 -594 -732 -195 -62 -410 -87 -846 -97 -688 -16 -1136
45 -1420 192 -236 121 -369 287 -437 540 -23 87 -26 120 -27 264 -1 149 1 172
23 235 32 95 80 180 153 270 129 162 258 232 488 268 64 10 348 5 546 -9z
m-1626 -1869 c16 -19 6 -45 -18 -45 -23 0 -56 35 -47 49 9 16 51 13 65 -4z
m116 -88 c33 -28 27 -57 -10 -57 -34 0 -64 43 -46 65 17 20 24 19 56 -8z m137
-148 c37 -51 -8 -94 -55 -52 -18 16 -25 63 -11 77 14 13 46 1 66 -25z m136
-165 c25 -32 26 -47 6 -64 -34 -28 -98 25 -88 73 7 28 58 22 82 -9z m171 -148
c24 -26 22 -52 -5 -62 -44 -17 -111 39 -85 71 19 23 63 18 90 -9z m626 -12
c-3 -9 -6 -27 -6 -40 0 -26 -27 -33 -48 -12 -27 27 -6 68 36 68 18 0 23 -4 18
-16z m-410 -55 c24 -27 8 -53 -35 -57 -37 -4 -71 20 -71 49 0 34 77 40 106 8z
m222 5 c26 -18 27 -27 6 -48 -18 -19 -75 -21 -92 -4 -44 44 32 90 86 52z"/>
<path d="M3035 4336 c-102 -44 -174 -199 -162 -350 13 -174 108 -296 230 -296
173 0 281 293 188 506 -52 117 -166 179 -256 140z m9 -117 c50 -40 21 -119
-44 -119 -64 0 -91 70 -45 115 30 30 54 31 89 4z"/>
<path d="M4819 4327 c-94 -50 -156 -192 -146 -337 20 -282 249 -401 386 -200
44 64 62 130 62 227 1 148 -60 271 -155 314 -55 25 -94 24 -147 -4z m55 -119
c33 -47 7 -98 -50 -98 -56 0 -83 61 -44 100 27 27 75 26 94 -2z"/>
<path d="M3932 3653 c-17 -6 -42 -57 -42 -83 0 -34 44 -70 85 -70 53 0 89 39
81 88 -3 20 -15 45 -27 55 -20 16 -69 22 -97 10z"/>
<path d="M3777 3377 c-9 -23 36 -89 81 -121 58 -41 142 -48 207 -16 52 25 105
89 105 127 0 38 -32 27 -61 -20 -34 -56 -84 -81 -150 -75 -57 6 -110 42 -129
87 -13 32 -44 42 -53 18z"/>
</g>
</svg>
